<?xml version="1.0" encoding="utf-8"?>
<!-- Generator: Adobe Illustrator 25.3.1, SVG Export Plug-In . SVG Version: 6.00 Build 0)  -->
<svg version="1.1" id="Layer_1" xmlns="http://www.w3.org/2000/svg" xmlns:xlink="http://www.w3.org/1999/xlink" x="0px" y="0px"
	 viewBox="0 0 73 73" style="enable-background:new 0 0 73 73;" xml:space="preserve">
<style type="text/css">
	.st0{fill:url(#SVGID_1_);}
	.st1{fill:url(#SVGID_2_);}
</style>
<linearGradient id="SVGID_1_" gradientUnits="userSpaceOnUse" x1="40.5126" y1="36.5" x2="72.9993" y2="36.5" gradientTransform="matrix(-1 0 0 -1 73 73)">
	<stop  offset="0" style="stop-color:#D72D2F"/>
	<stop  offset="1" style="stop-color:#EF4F1F"/>
</linearGradient>
<path class="st0" d="M15.3,43.1c0.1,1.6,0,5.9-4.1,11.9c-0.3,0.5-0.3,1.1,0.1,1.5c1.7,1.7,2.7,2.8,3.5,3.5c1,1,1.4,1.4,2,2
	c0.4,0.4,1.1,0.4,1.5,0c7.2-6.3,15.2-19.3,14.1-35.1c-0.7-9.3-7.5-16.1-16.2-16.1C7.3,10.7,0,18,0,26.9C0,35.5,6.8,42.6,15.3,43.1z
	 M16.2,13c7.5,0,13.3,5.9,13.9,14c0,0,0,0,0,0c1.3,17.9-9.3,29.5-12.5,32.6c-0.3-0.3-0.7-0.7-1.2-1.2c-0.6-0.6-1.5-1.5-2.8-2.8
	c5-7.7,4.1-13.3,3.7-14c-0.2-0.4-0.6-0.6-1-0.6c-7.7,0-13.9-6.2-13.9-13.9C2.3,19.3,8.5,13,16.2,13z"/>
<linearGradient id="SVGID_2_" gradientUnits="userSpaceOnUse" x1="7.313737e-04" y1="36.5001" x2="32.4904" y2="36.5001" gradientTransform="matrix(-1 0 0 -1 73 73)">
	<stop  offset="0" style="stop-color:#D72D2F"/>
	<stop  offset="1" style="stop-color:#EF4F1F"/>
</linearGradient>
<path class="st1" d="M55.8,43.1c0.1,1.6,0,5.9-4.1,11.9c-0.3,0.5-0.3,1.1,0.1,1.5c1.7,1.7,2.7,2.7,3.5,3.5c1,1,1.4,1.4,2.1,2
	c0.4,0.4,1.1,0.4,1.5,0C66,55.7,74,42.7,72.9,26.8v0c-0.7-9.3-7.5-16.1-16.2-16.1c-8.9,0-16.2,7.3-16.2,16.2
	C40.5,35.5,47.3,42.6,55.8,43.1z M56.7,13c7.5,0,13.3,5.9,13.9,14v0c1.3,17.9-9.3,29.5-12.5,32.6c-0.3-0.3-0.7-0.7-1.2-1.2
	c-0.6-0.6-1.5-1.5-2.8-2.8c5-7.7,4.1-13.3,3.7-14c-0.2-0.4-0.6-0.6-1-0.6c-7.7,0-13.9-6.2-13.9-13.9C42.8,19.3,49,13,56.7,13z"/>
</svg>
