<svg width="73" height="73" viewBox="0 0 73 73" fill="none" xmlns="http://www.w3.org/2000/svg">
<path d="M57.749 29.9136C57.602 28.3242 57.7145 24.0034 61.8537 17.995C62.1668 17.5416 62.11 16.9301 61.7211 16.5414C60.0336 14.8539 58.9888 13.789 58.2559 13.0438C57.2923 12.0613 56.8524 11.6136 56.2085 11.0298C55.7786 10.6434 55.1281 10.6366 54.6936 11.0154C47.4789 17.2933 39.4656 30.2656 40.6252 46.1587C41.3046 55.4908 48.1117 62.2644 56.8101 62.2644C65.7367 62.2644 72.9993 55.0029 72.9993 46.0762C72.9993 37.4647 66.2403 30.4026 57.749 29.9136ZM56.8101 59.9831C49.3402 59.9831 43.4912 54.0996 42.8998 45.9938C42.8998 45.9938 42.8998 45.9938 42.8998 45.9927C41.5954 28.1181 52.2208 16.508 55.431 13.4337C55.744 13.7422 56.1016 14.1053 56.6285 14.6422C57.2633 15.2882 58.1323 16.1727 59.4466 17.4916C54.4218 25.2331 55.3698 30.749 55.7852 31.54C55.9824 31.9153 56.3868 32.1682 56.8101 32.1682C64.4792 32.1682 70.718 38.4071 70.718 46.0762C70.718 53.7443 64.4792 59.9831 56.8101 59.9831Z" fill="url(#paint0_linear)"/>
<path d="M17.239 29.9136C17.0909 28.3286 17.2 24.0111 21.3437 17.995C21.6556 17.5416 21.5999 16.9301 21.2111 16.5414C19.5269 14.8571 18.4832 13.7934 17.7514 13.0482C16.7846 12.0635 16.3434 11.6146 15.6996 11.0298C15.2696 10.6433 14.6191 10.6377 14.1848 11.0142C6.9701 17.2921 -1.04439 30.2623 0.112892 46.1586V46.1598C0.794644 55.4908 7.60269 62.2644 16.3011 62.2644C25.2279 62.2644 32.4904 55.0029 32.4904 46.0762C32.4904 37.4636 25.7313 30.4004 17.239 29.9136ZM16.3011 59.9831C8.83251 59.9831 2.98008 54.0995 2.38753 45.9927V45.9938C1.08653 28.1147 11.7119 16.5068 14.9221 13.4336C15.2362 13.7422 15.5949 14.1075 16.1229 14.6455C16.7567 15.2916 17.6245 16.1749 18.9366 17.4915C13.9118 25.2342 14.8598 30.749 15.2752 31.5388C15.4724 31.9142 15.8778 32.1682 16.3011 32.1682C23.9703 32.1682 30.2092 38.407 30.2092 46.0762C30.2092 53.7442 23.9703 59.9831 16.3011 59.9831Z" fill="url(#paint1_linear)"/>
<defs>
<linearGradient id="paint0_linear" x1="40.5126" y1="36.5" x2="72.9993" y2="36.5" gradientUnits="userSpaceOnUse">
<stop stop-color="#D72D2F"/>
<stop offset="1" stop-color="#EF4F1F"/>
</linearGradient>
<linearGradient id="paint1_linear" x1="0.000732513" y1="36.5001" x2="32.4904" y2="36.5001" gradientUnits="userSpaceOnUse">
<stop stop-color="#D72D2F"/>
<stop offset="1" stop-color="#EF4F1F"/>
</linearGradient>
</defs>
</svg>
